<svg id="Layer_1" data-name="Layer 1" xmlns="http://www.w3.org/2000/svg" xmlns:xlink="http://www.w3.org/1999/xlink"
    viewBox="0 0 204.46 242.14">
    <defs>
        <linearGradient id="linear-gradient" x1="102.23" y1="204.46" x2="102.23" gradientUnits="userSpaceOnUse">
            <stop offset="0" stop-color="#16a085" />
            <stop offset="1" stop-color="#1abc9c" />
        </linearGradient>
    </defs>
    <g id="retry_button">
        <rect y="37.68" width="204.46" height="204.46" rx="37.08" fill="#1a1a1a" opacity="0.3" />
        <rect y="20.65" width="204.46" height="204.46" rx="37.08" fill="#116d5b" />
        <rect width="204.46" height="204.46" rx="37.08" fill="url(#linear-gradient)" />
        <path
            d="M555.63,379.24H425.33a37.08,37.08,0,0,0-37.08,37.08v11.87a37.08,37.08,0,0,1,37.08-37.08h130.3a37.08,37.08,0,0,1,37.08,37.08V416.32A37.08,37.08,0,0,0,555.63,379.24Z"
            transform="translate(-388.25 -379.24)" fill="#fff" opacity="0.5" />
        <path
            d="M537.33,476.34a47.25,47.25,0,0,1-93.64,6.07,7.18,7.18,0,1,1,14.13-2.58A32.89,32.89,0,1,0,491.38,441v4a7.76,7.76,0,0,1-11.64,6.72l-20.05-11.58a7.75,7.75,0,0,1,0-13.43l20.05-11.58a7.76,7.76,0,0,1,11.64,6.72v4.78A47.23,47.23,0,0,1,537.33,476.34Z"
            transform="translate(-388.25 -379.24)" fill="#fff" opacity="0.5" />
        <path
            d="M537.33,470.27a47.25,47.25,0,0,1-93.64,6.07,7.18,7.18,0,1,1,14.13-2.57,32.89,32.89,0,1,0,33.56-38.87v4a7.76,7.76,0,0,1-11.64,6.71L459.69,434a7.76,7.76,0,0,1,0-13.44L479.74,409a7.76,7.76,0,0,1,11.64,6.72v4.77A47.24,47.24,0,0,1,537.33,470.27Z"
            transform="translate(-388.25 -379.24)" fill="#0a3a31" />
        <path
            d="M461.56,564.64a13.12,13.12,0,1,1,0-18.62,12.58,12.58,0,0,1,3.81,9.29A12.72,12.72,0,0,1,461.56,564.64Zm-15.09-3.39a8.42,8.42,0,0,0,11.59,0,8.71,8.71,0,0,0,0-11.88,8.35,8.35,0,0,0-11.59,0,8.71,8.71,0,0,0,0,11.88Z"
            transform="translate(-388.25 -379.24)" fill="#0a3a31" />
        <path
            d="M488.05,567.91h-5.36l-5.08-8.75h-3.78v8.75h-5v-25.2h10.08a8.36,8.36,0,0,1,8.39,8.35A7.65,7.65,0,0,1,486,555.4a8.33,8.33,0,0,1-3.53,3Zm-9.11-20.55h-5.11v7.45h5.11a3.19,3.19,0,0,0,2.42-1.1,3.77,3.77,0,0,0,1-2.65,3.7,3.7,0,0,0-1-2.62A3.21,3.21,0,0,0,478.94,547.36Z"
            transform="translate(-388.25 -379.24)" fill="#0a3a31" />
        <path
            d="M506.2,554.84a6.26,6.26,0,0,1,3.31,5.76,6.78,6.78,0,0,1-2.27,5.26,8,8,0,0,1-5.58,2H491v-25.2h9.93a7.8,7.8,0,0,1,5.44,2,6.52,6.52,0,0,1,2.23,5.07A6.15,6.15,0,0,1,506.2,554.84Zm-5.3-7.48h-5v5.54h5a2.59,2.59,0,0,0,1.93-.79,2.71,2.71,0,0,0,.77-2,2.76,2.76,0,0,0-.75-2A2.57,2.57,0,0,0,500.9,547.36Zm-5,15.91h5.72a2.78,2.78,0,0,0,2.09-.85,3.14,3.14,0,0,0,0-4.25,2.81,2.81,0,0,0-2.09-.84h-5.72Z"
            transform="translate(-388.25 -379.24)" fill="#0a3a31" />
        <path d="M512.75,567.91v-25.2h5v25.2Z" transform="translate(-388.25 -379.24)" fill="#0a3a31" />
        <path d="M520.52,542.71h18.54v4.75h-6.8v20.45h-5V547.46h-6.77Z" transform="translate(-388.25 -379.24)"
            fill="#0a3a31" />
    </g>
</svg>