<svg id="Layer_1" data-name="Layer 1" xmlns="http://www.w3.org/2000/svg" xmlns:xlink="http://www.w3.org/1999/xlink"
    viewBox="0 0 204.46 242.14">
    <defs>
        <linearGradient id="linear-gradient" x1="102.23" y1="204.46" x2="102.23" gradientUnits="userSpaceOnUse">
            <stop offset="0" stop-color="#16a085" />
            <stop offset="1" stop-color="#1abc9c" />
        </linearGradient>
    </defs>
    <g id="retry_button">
        <rect y="37.68" width="204.46" height="204.46" rx="37.08" fill="#1a1a1a" opacity="0.3" />
        <rect y="20.65" width="204.46" height="204.46" rx="37.08" fill="#116d5b" class="svg-color"/>
        <rect width="204.46" height="204.46" rx="37.08" fill="url(#linear-gradient)" />
        <path
            d="M545.25,379.24H415a37.08,37.08,0,0,0-37.08,37.08v11.87A37.08,37.08,0,0,1,415,391.11h130.3a37.08,37.08,0,0,1,37.08,37.08V416.32A37.08,37.08,0,0,0,545.25,379.24Z"
            transform="translate(-377.87 -379.24)" fill="#fff" opacity="0.5" />
        <g opacity="0.5">
            <path
                d="M438.77,457.92h0a2.73,2.73,0,0,0-1.85.8l-16.81,16.82a2.72,2.72,0,0,0,0,3.85l16.82,16.77h0a2.72,2.72,0,0,0,4.63-1.93V460.64a2.69,2.69,0,0,0-.82-1.95A2.74,2.74,0,0,0,438.77,457.92Z"
                transform="translate(-377.87 -379.24)" fill="#fff" fill-rule="evenodd" />
            <path
                d="M498.69,517a2.73,2.73,0,0,0-2.51-1.68H462.6a2.72,2.72,0,0,0-1.93,4.63l16.77,16.78a2.73,2.73,0,0,0,3.84,0l16.82-16.78h0A2.73,2.73,0,0,0,498.69,517Z"
                transform="translate(-377.87 -379.24)" fill="#fff" fill-rule="evenodd" />
            <path
                d="M538.61,475.54l-16.82-16.82a2.71,2.71,0,0,0-2-.8h0a2.72,2.72,0,0,0-2.68,2.72v33.59a2.72,2.72,0,0,0,4.64,1.93l16.82-16.77a2.72,2.72,0,0,0,0-3.85Z"
                transform="translate(-377.87 -379.24)" fill="#fff" fill-rule="evenodd" />
            <path
                d="M481.28,418.18h0a2.72,2.72,0,0,0-2-.79h0a2.71,2.71,0,0,0-1.88.8L460.67,435a2.72,2.72,0,0,0,1.93,4.63h33.58A2.72,2.72,0,0,0,498.1,435Z"
                transform="translate(-377.87 -379.24)" fill="#fff" fill-rule="evenodd" />
            <path
                d="M496,477.46a16.68,16.68,0,1,0-16.68,16.68A16.73,16.73,0,0,0,496,477.46Zm-27.93,0a11.25,11.25,0,1,1,11.25,11.25A11.21,11.21,0,0,1,468.11,477.46Z"
                transform="translate(-377.87 -379.24)" fill="#fff" fill-rule="evenodd" />
        </g>
        <path
            d="M438.77,452.41h0a2.73,2.73,0,0,0-1.85.8L420.11,470a2.72,2.72,0,0,0,0,3.85l16.82,16.77h0a2.72,2.72,0,0,0,4.63-1.93V455.13a2.69,2.69,0,0,0-.82-1.95A2.74,2.74,0,0,0,438.77,452.41Z"
            transform="translate(-377.87 -379.24)" fill="#0a3a31" fill-rule="evenodd" />
        <path
            d="M498.69,511.44a2.73,2.73,0,0,0-2.51-1.68H462.6a2.72,2.72,0,0,0-1.93,4.63l16.77,16.78a2.73,2.73,0,0,0,3.84,0L498.1,514.4h0A2.73,2.73,0,0,0,498.69,511.44Z"
            transform="translate(-377.87 -379.24)" fill="#0a3a31" fill-rule="evenodd" />
        <path
            d="M538.61,470l-16.82-16.82a2.71,2.71,0,0,0-2-.8h0a2.72,2.72,0,0,0-2.68,2.72v33.59a2.72,2.72,0,0,0,4.64,1.93l16.82-16.77a2.72,2.72,0,0,0,0-3.85Z"
            transform="translate(-377.87 -379.24)" fill="#0a3a31" fill-rule="evenodd" />
        <path
            d="M481.28,412.67h0a2.72,2.72,0,0,0-2-.79h0a2.71,2.71,0,0,0-1.88.8l-16.77,16.77a2.72,2.72,0,0,0,1.93,4.63h33.58a2.72,2.72,0,0,0,1.92-4.64Z"
            transform="translate(-377.87 -379.24)" fill="#0a3a31" fill-rule="evenodd" />
        <path
            d="M496,472a16.68,16.68,0,1,0-16.68,16.68A16.73,16.73,0,0,0,496,472Zm-27.93,0a11.25,11.25,0,1,1,11.25,11.25A11.21,11.21,0,0,1,468.11,472Z"
            transform="translate(-377.87 -379.24)" fill="#0a3a31" fill-rule="evenodd" />
        <path
            d="M451,547.55h9.4a8.47,8.47,0,0,1,6.12,2.45,8.53,8.53,0,0,1,0,12,8.46,8.46,0,0,1-6.12,2.44h-4.43v8.28h-5Zm5,12.28h4.43a3.49,3.49,0,0,0,2.63-1.1,4.09,4.09,0,0,0,0-5.45,3.51,3.51,0,0,0-2.63-1.08h-4.43Z"
            transform="translate(-377.87 -379.24)" fill="#0a3a31" />
        <path d="M491.24,572.75h-5.4l-1.51-4.53H474.28l-1.51,4.53h-5.36l8.82-25.2h6.15Zm-11.92-19.47-3.45,10.29h6.91Z"
            transform="translate(-377.87 -379.24)" fill="#0a3a31" />
        <path d="M508.27,562.93V547.55h5v25.2h-3.78l-10.8-15.4v15.4h-5v-25.2h3.78Z"
            transform="translate(-377.87 -379.24)" fill="#0a3a31" />
    </g>
</svg>