<svg id="Layer_1" data-name="Layer 1" xmlns="http://www.w3.org/2000/svg" xmlns:xlink="http://www.w3.org/1999/xlink"
    viewBox="0 0 204.46 242.14">
    <defs>
        <linearGradient id="linear-gradient" x1="102.23" y1="204.46" x2="102.23" gradientUnits="userSpaceOnUse">
            <stop offset="0" stop-color="#16a085" />
            <stop offset="1" stop-color="#1abc9c" />
        </linearGradient>
    </defs>
    <g id="retry_button">
        <rect y="37.68" width="204.46" height="204.46" rx="37.08" fill="#1a1a1a" opacity="0.3" />
        <rect y="20.65" width="204.46" height="204.46" rx="37.08" fill="#116d5b"/>
        <rect width="204.46" height="204.46" rx="37.08" fill="url(#linear-gradient)" />
        <path
            d="M552.25,379.24H422a37.08,37.08,0,0,0-37.08,37.08v11.87A37.08,37.08,0,0,1,422,391.11h130.3a37.08,37.08,0,0,1,37.08,37.08V416.32A37.08,37.08,0,0,0,552.25,379.24Z"
            transform="translate(-384.87 -379.24)" fill="#fff" opacity="0.5" />
        <path
            d="M452.56,572.26a11.27,11.27,0,0,1-6.27-1.66,9,9,0,0,1-3.63-4.57l4.25-2.48a5.66,5.66,0,0,0,5.79,3.85,5.23,5.23,0,0,0,3-.72,2.39,2.39,0,0,0-.18-4,18.15,18.15,0,0,0-4.25-1.62,18.56,18.56,0,0,1-5.22-2.34,6,6,0,0,1-2.38-5.18,6.67,6.67,0,0,1,2.41-5.44,8.75,8.75,0,0,1,5.87-2.05,9.61,9.61,0,0,1,9,5.65l-4.17,2.41a5,5,0,0,0-4.83-3.24,3.8,3.8,0,0,0-2.41.71,2.18,2.18,0,0,0-.9,1.81,2.36,2.36,0,0,0,1,2,14.6,14.6,0,0,0,3.82,1.58l1.73.58c.31.09.85.3,1.62.61a7.3,7.3,0,0,1,1.58.76,6.31,6.31,0,0,1,2.38,2.23,6.65,6.65,0,0,1,.93,3.56,6.75,6.75,0,0,1-2.55,5.55A10.25,10.25,0,0,1,452.56,572.26Z"
            transform="translate(-384.87 -379.24)" fill="#0a3a31" />
        <path d="M469.73,546.55V567h9.61v4.75H464.76v-25.2Z" transform="translate(-384.87 -379.24)" fill="#0a3a31" />
        <path d="M482.15,571.75v-25.2h5v25.2Z" transform="translate(-384.87 -379.24)" fill="#0a3a31" />
        <path
            d="M503.75,572.26a13.11,13.11,0,1,1,0-26.21,12.82,12.82,0,0,1,6.32,1.6,11.8,11.8,0,0,1,4.52,4.34l-4.29,2.48a6.63,6.63,0,0,0-2.66-2.64,8.63,8.63,0,0,0-9.83,1.35,9.07,9.07,0,0,0,0,11.91,8.66,8.66,0,0,0,9.85,1.35,6.39,6.39,0,0,0,2.64-2.61l4.29,2.49a11.8,11.8,0,0,1-4.52,4.34A12.93,12.93,0,0,1,503.75,572.26Z"
            transform="translate(-384.87 -379.24)" fill="#0a3a31" />
        <path d="M522.61,561.35V567h10.62v4.75H517.65v-25.2h15.4v4.76H522.61v5.36h9.54v4.68Z"
            transform="translate(-384.87 -379.24)" fill="#0a3a31" />
        <g opacity="0.5">
            <path
                d="M441.41,408.88,445,491.06A2.59,2.59,0,0,0,446.1,493l84.07,43.89a2.84,2.84,0,0,0,1.23.25,3.63,3.63,0,0,0,1.21-.35,2.38,2.38,0,0,0,1.13-2l-3.53-82.18a3.4,3.4,0,0,0-1.31-1.93h0l-84.07-43.89a2.08,2.08,0,0,0-2.28.1A2.37,2.37,0,0,0,441.41,408.88Zm84.13,45.27,3.3,76.84L449.46,489.5l-3.3-76.85Z"
                transform="translate(-384.87 -379.24)" fill="#fff" />
            <path
                d="M460.15,489.49l25.63,13.41c.15,0,.31.14.47.14a.58.58,0,0,0,.45-.18l13.23-8.51a.63.63,0,0,0,.28-.62L499,464.91a.8.8,0,0,0-.34-.59L473,451.06a.7.7,0,0,0-.76,0l-13.38,8.52a.6.6,0,0,0-.28.62l1.23,28.67A.79.79,0,0,0,460.15,489.49Zm37.35-23.14,1.16,27-11.74,7.53-1.16-27ZM472.77,452.6,496.68,465l-11.74,7.53-24.06-12.41ZM484.23,474l1.16,27-24.06-12.56-1.16-26.83Z"
                transform="translate(-384.87 -379.24)" fill="#fff" />
            <path
                d="M477.18,448.43a.77.77,0,0,0,.33.6h0l25.16,13.13,1.22,28.35c0,.31.17.46.48.59a.58.58,0,0,1,.31.14.53.53,0,0,0,.45-.17l11-7a.6.6,0,0,0,.28-.62l-1.23-28.67a.79.79,0,0,0-.33-.59l-25.63-13.41a.68.68,0,0,0-.76,0l-11,7A.6.6,0,0,0,477.18,448.43Zm36.53,7.75,1.16,27-9.52,5.91-1.16-27Zm-.82-1.34-9.52,5.91-23.91-12.41,9.37-6.06Z"
                transform="translate(-384.87 -379.24)" fill="#fff" />
        </g>
        <path
            d="M439.58,410.06l3.54,82.18a2.61,2.61,0,0,0,1.15,1.94l84.07,43.89a2.84,2.84,0,0,0,1.23.25,3.43,3.43,0,0,0,1.21-.36,2.38,2.38,0,0,0,1.13-2l-3.53-82.18a3.4,3.4,0,0,0-1.31-1.93h0L443,407.93a2.07,2.07,0,0,0-2.29.09A2.4,2.4,0,0,0,439.58,410.06Zm84.13,45.26,3.3,76.85-79.38-41.5-3.31-76.84Z"
            transform="translate(-384.87 -379.24)" fill="#0a3a31" />
        <path
            d="M458.32,490.67,484,504.08c.15,0,.31.14.46.13a.58.58,0,0,0,.46-.17l13.22-8.51a.61.61,0,0,0,.28-.63l-1.24-28.81a.78.78,0,0,0-.33-.6l-25.62-13.26a.7.7,0,0,0-.76,0L457,460.79a.6.6,0,0,0-.28.62L458,490.07A.78.78,0,0,0,458.32,490.67Zm37.35-23.14,1.16,27L485.09,502l-1.17-27Zm-24.73-13.76,23.91,12.42-11.75,7.53-24.05-12.41Zm11.46,21.35,1.16,27L459.5,489.55l-1.16-26.83Z"
            transform="translate(-384.87 -379.24)" fill="#0a3a31" />
        <path
            d="M475.34,449.61a.82.82,0,0,0,.34.6h0l25.15,13.12,1.22,28.36c0,.31.18.45.49.59a.51.51,0,0,1,.31.14.57.57,0,0,0,.45-.17l11-7a.61.61,0,0,0,.28-.63l-1.23-28.66a.82.82,0,0,0-.34-.6l-25.62-13.41a.7.7,0,0,0-.77,0l-11,7A.61.61,0,0,0,475.34,449.61Zm36.54,7.75,1.16,27-9.52,5.9-1.16-27Zm-.82-1.34-9.52,5.91-23.91-12.42,9.37-6.05Z"
            transform="translate(-384.87 -379.24)" fill="#0a3a31" />
    </g>
</svg>