{
    "asset" : {
        "generator" : "Khronos glTF Blender I/O v3.3.32",
        "version" : "2.0"
    },
    "scene" : 0,
    "scenes" : [
        {
            "name" : "Scene",
            "nodes" : [
                15
            ]
        }
    ],
    "nodes" : [
        {
            "mesh" : 0,
            "name" : "Object001_Object001_mtl_0",
            "translation" : [
                7.62939453125e-06,
                0,
                0
            ]
        },
        {
            "children" : [
                0
            ],
            "name" : "Object_4",
            "translation" : [
                276.7585144042969,
                -81.01786804199219,
                12.25
            ]
        },
        {
            "children" : [
                1
            ],
            "name" : "Object001",
            "rotation" : [
                -0.7071068286895752,
                0,
                0,
                0.7071067094802856
            ],
            "translation" : [
                -276.75848388671875,
                -12.249998092651367,
                -81.01787567138672
            ]
        },
        {
            "mesh" : 1,
            "name" : "Object002_Object002_mtl_0",
            "translation" : [
                7.62939453125e-06,
                0,
                0
            ]
        },
        {
            "mesh" : 2,
            "name" : "Object002_Object002_mtl_0.001",
            "translation" : [
                7.62939453125e-06,
                0,
                0
            ]
        },
        {
            "children" : [
                3,
                4
            ],
            "name" : "Object_7",
            "translation" : [
                276.7585144042969,
                -81.01786804199219,
                12.25
            ]
        },
        {
            "children" : [
                5
            ],
            "name" : "Object002",
            "rotation" : [
                -0.7071068286895752,
                0,
                0,
                0.7071067094802856
            ],
            "translation" : [
                -276.75848388671875,
                -12.249998092651367,
                -81.01787567138672
            ]
        },
        {
            "mesh" : 3,
            "name" : "Object003_Object003_mtl_0",
            "translation" : [
                7.62939453125e-06,
                0,
                0
            ]
        },
        {
            "children" : [
                7
            ],
            "name" : "Object_11",
            "translation" : [
                276.7585144042969,
                -81.01786804199219,
                12.25
            ]
        },
        {
            "children" : [
                8
            ],
            "name" : "Object003",
            "rotation" : [
                -0.7071068286895752,
                0,
                0,
                0.7071067094802856
            ],
            "translation" : [
                -276.75848388671875,
                -12.249998092651367,
                -81.01787567138672
            ]
        },
        {
            "mesh" : 4,
            "name" : "Object004_Object004_mtl_0",
            "translation" : [
                7.62939453125e-06,
                0,
                0
            ]
        },
        {
            "children" : [
                10
            ],
            "name" : "Object_14",
            "translation" : [
                276.7585144042969,
                -81.01786804199219,
                12.25
            ]
        },
        {
            "children" : [
                11
            ],
            "name" : "Object004",
            "rotation" : [
                -0.7071068286895752,
                0,
                0,
                0.7071067094802856
            ],
            "translation" : [
                -276.75848388671875,
                -12.249998092651367,
                -81.01787567138672
            ]
        },
        {
            "children" : [
                2,
                6,
                9,
                12
            ],
            "name" : "RootNode",
            "translation" : [
                -7.62939453125e-06,
                0,
                -1.52587890625e-05
            ]
        },
        {
            "children" : [
                13
            ],
            "name" : "Smart Home Floor Plan take 3.fbx",
            "rotation" : [
                0.7071068286895752,
                0,
                0,
                0.7071067094802856
            ],
            "scale" : [
                0.02539999969303608,
                0.025400003418326378,
                0.025400003418326378
            ]
        },
        {
            "children" : [
                14
            ],
            "name" : "Sketchfab_model",
            "rotation" : [
                -0.7071068286895752,
                0,
                0,
                0.7071067094802856
            ],
            "translation" : [
                2.5008721351623535,
                0,
                4.67611026763916
            ]
        }
    ],
    "materials" : [
        {
            "doubleSided" : true,
            "name" : "Object001_mtl.004",
            "pbrMetallicRoughness" : {
                "baseColorTexture" : {
                    "index" : 0
                },
                "metallicFactor" : 0,
                "roughnessFactor" : 0.8929713368415833
            }
        },
        {
            "doubleSided" : true,
            "name" : "Object002_mtl.004",
            "pbrMetallicRoughness" : {
                "baseColorTexture" : {
                    "index" : 1
                },
                "metallicFactor" : 0,
                "roughnessFactor" : 0.8929713368415833
            }
        },
        {
            "doubleSided" : true,
            "name" : "Object003_mtl.004",
            "pbrMetallicRoughness" : {
                "baseColorTexture" : {
                    "index" : 2
                },
                "metallicFactor" : 0,
                "roughnessFactor" : 0.8929713368415833
            }
        },
        {
            "doubleSided" : true,
            "name" : "Object004_mtl.004",
            "pbrMetallicRoughness" : {
                "baseColorTexture" : {
                    "index" : 3
                },
                "metallicFactor" : 0,
                "roughnessFactor" : 0.8929713368415833
            }
        }
    ],
    "meshes" : [
        {
            "name" : "Object001_Object001_mtl_0.004",
            "primitives" : [
                {
                    "attributes" : {
                        "POSITION" : 0,
                        "NORMAL" : 1,
                        "TEXCOORD_0" : 2,
                        "TEXCOORD_1" : 3
                    },
                    "indices" : 4,
                    "material" : 0
                }
            ]
        },
        {
            "name" : "Object002_Object002_mtl_0.003",
            "primitives" : [
                {
                    "attributes" : {
                        "POSITION" : 5,
                        "NORMAL" : 6,
                        "TEXCOORD_0" : 7,
                        "TEXCOORD_1" : 8
                    },
                    "indices" : 9,
                    "material" : 1
                }
            ]
        },
        {
            "name" : "Object002_Object002_mtl_0.008",
            "primitives" : [
                {
                    "attributes" : {
                        "POSITION" : 10,
                        "NORMAL" : 11,
                        "TEXCOORD_0" : 12,
                        "TEXCOORD_1" : 13
                    },
                    "indices" : 14,
                    "material" : 1
                }
            ]
        },
        {
            "name" : "Object003_Object003_mtl_0.004",
            "primitives" : [
                {
                    "attributes" : {
                        "POSITION" : 15,
                        "NORMAL" : 16,
                        "TEXCOORD_0" : 17,
                        "TEXCOORD_1" : 18
                    },
                    "indices" : 19,
                    "material" : 2
                }
            ]
        },
        {
            "name" : "Object004_Object004_mtl_0.004",
            "primitives" : [
                {
                    "attributes" : {
                        "POSITION" : 20,
                        "NORMAL" : 21,
                        "TEXCOORD_0" : 22,
                        "TEXCOORD_1" : 23
                    },
                    "indices" : 24,
                    "material" : 3
                }
            ]
        }
    ],
    "textures" : [
        {
            "sampler" : 0,
            "source" : 0
        },
        {
            "sampler" : 0,
            "source" : 1
        },
        {
            "sampler" : 0,
            "source" : 2
        },
        {
            "sampler" : 0,
            "source" : 3
        }
    ],
    "images" : [
        {
            "mimeType" : "image/jpeg",
            "name" : "Object001_mtl_baseColor",
            "uri" : "Object001_mtl_baseColor.jpg"
        },
        {
            "mimeType" : "image/jpeg",
            "name" : "Object002_mtl_baseColor",
            "uri" : "Object002_mtl_baseColor.jpg"
        },
        {
            "mimeType" : "image/jpeg",
            "name" : "Object003_mtl_baseColor",
            "uri" : "Object003_mtl_baseColor.jpg"
        },
        {
            "mimeType" : "image/jpeg",
            "name" : "Object004_mtl_baseColor",
            "uri" : "Object004_mtl_baseColor.jpg"
        }
    ],
    "accessors" : [
        {
            "bufferView" : 0,
            "componentType" : 5126,
            "count" : 476,
            "max" : [
                -31.00774383544922,
                275.573974609375,
                97.00074768066406
            ],
            "min" : [
                -139.008544921875,
                141.448974609375,
                26.62667465209961
            ],
            "type" : "VEC3"
        },
        {
            "bufferView" : 1,
            "componentType" : 5126,
            "count" : 476,
            "type" : "VEC3"
        },
        {
            "bufferView" : 2,
            "componentType" : 5126,
            "count" : 476,
            "type" : "VEC2"
        },
        {
            "bufferView" : 3,
            "componentType" : 5126,
            "count" : 476,
            "type" : "VEC2"
        },
        {
            "bufferView" : 4,
            "componentType" : 5123,
            "count" : 576,
            "type" : "SCALAR"
        },
        {
            "bufferView" : 5,
            "componentType" : 5126,
            "count" : 1598,
            "max" : [
                -32.010467529296875,
                274.823974609375,
                94.74645233154297
            ],
            "min" : [
                -138.50450134277344,
                145.70208740234375,
                0
            ],
            "type" : "VEC3"
        },
        {
            "bufferView" : 6,
            "componentType" : 5126,
            "count" : 1598,
            "type" : "VEC3"
        },
        {
            "bufferView" : 7,
            "componentType" : 5126,
            "count" : 1598,
            "type" : "VEC2"
        },
        {
            "bufferView" : 8,
            "componentType" : 5126,
            "count" : 1598,
            "type" : "VEC2"
        },
        {
            "bufferView" : 9,
            "componentType" : 5123,
            "count" : 2784,
            "type" : "SCALAR"
        },
        {
            "bufferView" : 10,
            "componentType" : 5126,
            "count" : 750,
            "max" : [
                -50.56489562988281,
                123.46047973632812,
                79.13770294189453
            ],
            "min" : [
                -97.80915832519531,
                99.44108581542969,
                0
            ],
            "type" : "VEC3"
        },
        {
            "bufferView" : 11,
            "componentType" : 5126,
            "count" : 750,
            "type" : "VEC3"
        },
        {
            "bufferView" : 12,
            "componentType" : 5126,
            "count" : 750,
            "type" : "VEC2"
        },
        {
            "bufferView" : 13,
            "componentType" : 5126,
            "count" : 750,
            "type" : "VEC2"
        },
        {
            "bufferView" : 14,
            "componentType" : 5123,
            "count" : 960,
            "type" : "SCALAR"
        },
        {
            "bufferView" : 15,
            "componentType" : 5126,
            "count" : 126,
            "max" : [
                -31.759002685546875,
                272.9489440917969,
                94.75076293945312
            ],
            "min" : [
                -158.58786010742188,
                98.05471801757812,
                -12.25
            ],
            "type" : "VEC3"
        },
        {
            "bufferView" : 16,
            "componentType" : 5126,
            "count" : 126,
            "type" : "VEC3"
        },
        {
            "bufferView" : 17,
            "componentType" : 5126,
            "count" : 126,
            "type" : "VEC2"
        },
        {
            "bufferView" : 18,
            "componentType" : 5126,
            "count" : 126,
            "type" : "VEC2"
        },
        {
            "bufferView" : 19,
            "componentType" : 5123,
            "count" : 162,
            "type" : "SCALAR"
        },
        {
            "bufferView" : 20,
            "componentType" : 5126,
            "count" : 244,
            "max" : [
                -32.51165771484375,
                274.0739440917969,
                120.00296783447266
            ],
            "min" : [
                -158.59518432617188,
                98.04922485351562,
                0
            ],
            "type" : "VEC3"
        },
        {
            "bufferView" : 21,
            "componentType" : 5126,
            "count" : 244,
            "type" : "VEC3"
        },
        {
            "bufferView" : 22,
            "componentType" : 5126,
            "count" : 244,
            "type" : "VEC2"
        },
        {
            "bufferView" : 23,
            "componentType" : 5126,
            "count" : 244,
            "type" : "VEC2"
        },
        {
            "bufferView" : 24,
            "componentType" : 5123,
            "count" : 333,
            "type" : "SCALAR"
        }
    ],
    "bufferViews" : [
        {
            "buffer" : 0,
            "byteLength" : 5712,
            "byteOffset" : 0,
            "target" : 34962
        },
        {
            "buffer" : 0,
            "byteLength" : 5712,
            "byteOffset" : 5712,
            "target" : 34962
        },
        {
            "buffer" : 0,
            "byteLength" : 3808,
            "byteOffset" : 11424,
            "target" : 34962
        },
        {
            "buffer" : 0,
            "byteLength" : 3808,
            "byteOffset" : 15232,
            "target" : 34962
        },
        {
            "buffer" : 0,
            "byteLength" : 1152,
            "byteOffset" : 19040,
            "target" : 34963
        },
        {
            "buffer" : 0,
            "byteLength" : 19176,
            "byteOffset" : 20192,
            "target" : 34962
        },
        {
            "buffer" : 0,
            "byteLength" : 19176,
            "byteOffset" : 39368,
            "target" : 34962
        },
        {
            "buffer" : 0,
            "byteLength" : 12784,
            "byteOffset" : 58544,
            "target" : 34962
        },
        {
            "buffer" : 0,
            "byteLength" : 12784,
            "byteOffset" : 71328,
            "target" : 34962
        },
        {
            "buffer" : 0,
            "byteLength" : 5568,
            "byteOffset" : 84112,
            "target" : 34963
        },
        {
            "buffer" : 0,
            "byteLength" : 9000,
            "byteOffset" : 89680,
            "target" : 34962
        },
        {
            "buffer" : 0,
            "byteLength" : 9000,
            "byteOffset" : 98680,
            "target" : 34962
        },
        {
            "buffer" : 0,
            "byteLength" : 6000,
            "byteOffset" : 107680,
            "target" : 34962
        },
        {
            "buffer" : 0,
            "byteLength" : 6000,
            "byteOffset" : 113680,
            "target" : 34962
        },
        {
            "buffer" : 0,
            "byteLength" : 1920,
            "byteOffset" : 119680,
            "target" : 34963
        },
        {
            "buffer" : 0,
            "byteLength" : 1512,
            "byteOffset" : 121600,
            "target" : 34962
        },
        {
            "buffer" : 0,
            "byteLength" : 1512,
            "byteOffset" : 123112,
            "target" : 34962
        },
        {
            "buffer" : 0,
            "byteLength" : 1008,
            "byteOffset" : 124624,
            "target" : 34962
        },
        {
            "buffer" : 0,
            "byteLength" : 1008,
            "byteOffset" : 125632,
            "target" : 34962
        },
        {
            "buffer" : 0,
            "byteLength" : 324,
            "byteOffset" : 126640,
            "target" : 34963
        },
        {
            "buffer" : 0,
            "byteLength" : 2928,
            "byteOffset" : 126964,
            "target" : 34962
        },
        {
            "buffer" : 0,
            "byteLength" : 2928,
            "byteOffset" : 129892,
            "target" : 34962
        },
        {
            "buffer" : 0,
            "byteLength" : 1952,
            "byteOffset" : 132820,
            "target" : 34962
        },
        {
            "buffer" : 0,
            "byteLength" : 1952,
            "byteOffset" : 134772,
            "target" : 34962
        },
        {
            "buffer" : 0,
            "byteLength" : 666,
            "byteOffset" : 136724,
            "target" : 34963
        }
    ],
    "samplers" : [
        {
            "magFilter" : 9729,
            "minFilter" : 9987
        }
    ],
    "buffers" : [
        {
            "byteLength" : 137392,
            "uri" : "bedroom.bin"
        }
    ]
}
